<?xml version="1.0" encoding="UTF-8"?>
<svg width="47px" height="50px" viewBox="0 0 47 50" version="1.1" xmlns="http://www.w3.org/2000/svg" xmlns:xlink="http://www.w3.org/1999/xlink">
    <!-- Generator: Sketch 41.1 (35376) - http://www.bohemiancoding.com/sketch -->
    <title>Group 13</title>
    <desc>Created with Sketch.</desc>
    <defs></defs>
    <g id="Landing-UC" stroke="none" stroke-width="1" fill="none" fill-rule="evenodd">
        <g id="Landing-UC-catastrófico-LG-Copy-5" transform="translate(-992.000000, -2932.000000)" fill="#FFFFFF">
            <g id="Group-26" transform="translate(735.000000, 2778.000000)">
                <g id="Group-13" transform="translate(257.000000, 154.000000)">
                    <path d="M46.0882812,15.721875 C46.0882812,12.28125 43.2890625,9.48203125 39.8484375,9.48203125 C36.4078125,9.48203125 33.6085937,12.28125 33.6085937,15.721875 C33.6085937,18.8976563 35.9945312,21.5210937 39.0671875,21.9078125 L39.0671875,38.1109375 C39.0671875,43.4984375 34.684375,47.8804688 29.296875,47.8804688 L22.7109375,47.8804688 C17.3234375,47.8804688 12.940625,43.4976562 12.940625,38.1109375 L12.940625,28.8632813 L15.73125,28.8632813 C19.2140625,28.8632813 21.25,25.3414062 21.7773437,22.9359375 C21.8585937,22.4476563 23.7890625,10.93125 24.075,6.925 C24.1835937,5.41796875 23.65,3.9515625 22.575,2.796875 C21.4007812,1.5359375 19.740625,0.8125 18.0203125,0.8125 L16.909375,0.8125 C16.8742187,0.36171875 16.5046875,0 16.0445312,0 L14.46875,0 C13.9851562,0 13.5898437,0.3953125 13.5898437,0.87890625 L13.5898437,2.3078125 C13.5898437,2.79140625 13.9851562,3.18671875 14.46875,3.18671875 L16.04375,3.18671875 C16.5039062,3.18671875 16.8734375,2.82578125 16.909375,2.37421875 L18.0203125,2.37421875 C19.3078125,2.37421875 20.5515625,2.91640625 21.43125,3.8609375 C22.2078125,4.69453125 22.5929687,5.74296875 22.5171875,6.8125 C22.2359375,10.7445312 20.2554687,22.5570312 20.24375,22.6375 C19.8476562,24.4398438 18.2734375,27.2992187 15.73125,27.2992187 L8.58671875,27.2992187 C6.04453125,27.2992187 4.46953125,24.4398438 4.08125,22.6757812 C4.0625,22.5578125 2.0828125,10.7460938 1.80078125,6.81328125 C1.72421875,5.74375 2.11015625,4.69609375 2.88671875,3.86171875 C3.76640625,2.9171875 5.01015625,2.375 6.29765625,2.375 L7.39296875,2.375 C7.42890625,2.82578125 7.7984375,3.1875 8.25859375,3.1875 L9.83359375,3.1875 C10.3171875,3.1875 10.7125,2.7921875 10.7125,2.30859375 L10.7125,0.87890625 C10.7140625,0.3953125 10.3179687,0 9.834375,0 L8.259375,0 C7.79921875,0 7.4296875,0.36171875 7.39375,0.8125 L6.2984375,0.8125 C4.578125,0.8125 2.91875,1.5359375 1.74375,2.79765625 C0.66875,3.95234375 0.1359375,5.41796875 0.24375,6.925 C0.5296875,10.9304687 2.46015625,22.4476563 2.54921875,22.9734375 C3.06875,25.340625 5.1046875,28.8632813 8.5875,28.8632813 L11.378125,28.8632813 L11.378125,38.1101562 C11.378125,44.359375 16.4617187,49.4421875 22.7109375,49.4421875 L29.296875,49.4421875 C35.5460937,49.4421875 40.6296875,44.3585938 40.6296875,38.1101562 L40.6296875,21.9070313 C43.7023437,21.5210938 46.0882812,18.8976563 46.0882812,15.721875 L46.0882812,15.721875 Z M39.8484375,20.3992188 C37.26875,20.3992188 35.1710937,18.3007812 35.1710937,15.721875 C35.1710937,13.1429688 37.2695312,11.0445313 39.8484375,11.0445313 C42.4273437,11.0445313 44.5257812,13.1429688 44.5257812,15.721875 C44.5257812,18.3007813 42.4273437,20.3992188 39.8484375,20.3992188 L39.8484375,20.3992188 Z M39.8484375,13.071875 C38.3875,13.071875 37.1984375,14.2601562 37.1984375,15.721875 C37.1984375,17.1835938 38.3867187,18.371875 39.8484375,18.371875 C41.3101562,18.371875 42.4984375,17.1835938 42.4984375,15.721875 C42.4984375,14.2601562 41.309375,13.071875 39.8484375,13.071875 L39.8484375,13.071875 Z M39.8484375,16.8085938 C39.2484375,16.8085938 38.7609375,16.3203125 38.7609375,15.7210937 C38.7609375,15.121875 39.2484375,14.6335937 39.8484375,14.6335937 C40.4484375,14.6335937 40.9359375,15.121875 40.9359375,15.7210937 C40.9359375,16.3203125 40.4476562,16.8085938 39.8484375,16.8085938 L39.8484375,16.8085938 Z" id="Shape"></path>
                </g>
            </g>
        </g>
    </g>
</svg>