<?xml version="1.0" encoding="UTF-8"?>
<svg width="22px" height="30px" viewBox="0 0 22 30" version="1.1" xmlns="http://www.w3.org/2000/svg" xmlns:xlink="http://www.w3.org/1999/xlink">
    <!-- Generator: Sketch 41.1 (35376) - http://www.bohemiancoding.com/sketch -->
    <title>Shape</title>
    <desc>Created with Sketch.</desc>
    <defs></defs>
    <g id="Landing-UC" stroke="none" stroke-width="1" fill="none" fill-rule="evenodd">
        <g id="Landing-UC-catastrófico-LG-Copy-5" transform="translate(-125.000000, -1829.000000)" fill="#3564A9">
            <path d="M146.242678,1843.1255 C146.250333,1843.091 146.259264,1843.058 146.26054,1843.022 C146.260966,1843.0145 146.264368,1843.008 146.264368,1843 C146.264368,1836.275 141.723575,1830.7765 136.057471,1830.5125 L136.057471,1829.5 C136.057471,1829.2235 135.866943,1829 135.632184,1829 C135.397425,1829 135.206897,1829.2235 135.206897,1829.5 L135.206897,1830.5125 C129.540793,1830.7765 125,1836.275 125,1843 C125,1843.008 125.003402,1843.0145 125.003828,1843.0225 C125.005103,1843.058 125.013609,1843.091 125.02169,1843.126 C125.028494,1843.1555 125.032322,1843.185 125.042954,1843.212 C125.053586,1843.2385 125.070172,1843.2605 125.084632,1843.2845 C125.102494,1843.314 125.11908,1843.3435 125.142046,1843.368 C125.146724,1843.373 125.148851,1843.3805 125.153954,1843.3855 C125.169264,1843.4005 125.187977,1843.4055 125.204138,1843.4175 C125.22923,1843.436 125.253046,1843.4545 125.28154,1843.4665 C125.31131,1843.4795 125.341506,1843.4835 125.372126,1843.488 C125.390414,1843.49 125.406575,1843.5 125.425287,1843.5 C125.431667,1843.5 125.43677,1843.496 125.443149,1843.496 C125.475471,1843.4945 125.505667,1843.484 125.536713,1843.474 C125.559678,1843.4665 125.583069,1843.4625 125.603908,1843.4505 C125.628149,1843.4375 125.648138,1843.4165 125.670253,1843.398 C125.693644,1843.378 125.71746,1843.3595 125.737023,1843.3345 C125.741701,1843.3285 125.74808,1843.326 125.752759,1843.3195 C126.352414,1842.4685 127.142598,1842 127.977011,1842 C128.811425,1842 129.601609,1842.4685 130.201264,1843.3195 C130.209345,1843.331 130.221678,1843.3355 130.230609,1843.346 C130.240816,1843.358 130.24592,1843.374 130.257402,1843.385 C130.274414,1843.4015 130.294828,1843.4075 130.31269,1843.4205 C130.334379,1843.436 130.354368,1843.4515 130.377333,1843.4615 C130.412207,1843.4775 130.44708,1843.484 130.48323,1843.4885 C130.498966,1843.4905 130.513425,1843.5 130.528736,1843.5 C130.53554,1843.5 130.54192,1843.4965 130.548299,1843.496 C130.569989,1843.495 130.589977,1843.4885 130.611241,1843.4835 C130.640586,1843.4765 130.668655,1843.4685 130.696299,1843.454 C130.717563,1843.443 130.736701,1843.429 130.756264,1843.4135 C130.770299,1843.403 130.786034,1843.3975 130.799218,1843.3845 C130.809425,1843.3745 130.814103,1843.3605 130.82346,1843.3495 C130.833241,1843.338 130.846425,1843.332 130.855356,1843.319 C131.455862,1842.4685 132.246046,1842 133.08046,1842 C133.871494,1842 134.62,1842.425 135.206897,1843.193 L135.206897,1856.5 C135.206897,1857.327 134.63446,1858 133.931034,1858 C133.227609,1858 132.655172,1857.327 132.655172,1856.5 C132.655172,1856.2235 132.464644,1856 132.229885,1856 C131.995126,1856 131.804598,1856.2235 131.804598,1856.5 C131.804598,1857.8785 132.758517,1859 133.931034,1859 C135.103552,1859 136.057471,1857.8785 136.057471,1856.5 L136.057471,1843.193 C136.644368,1842.425 137.392874,1842 138.183908,1842 C139.018322,1842 139.808506,1842.4685 140.408161,1843.3195 C140.416241,1843.331 140.428575,1843.3355 140.437506,1843.346 C140.447713,1843.358 140.452816,1843.374 140.464299,1843.385 C140.48131,1843.4015 140.501724,1843.407 140.519586,1843.42 C140.541276,1843.4355 140.561264,1843.451 140.584655,1843.4615 C140.619103,1843.477 140.653977,1843.484 140.690552,1843.4885 C140.705862,1843.4905 140.720322,1843.5 140.735632,1843.5 C140.742437,1843.5 140.748816,1843.4965 140.755195,1843.496 C140.776885,1843.495 140.797299,1843.4885 140.818563,1843.483 C140.847483,1843.476 140.875552,1843.468 140.903195,1843.454 C140.924885,1843.443 140.944023,1843.4285 140.963586,1843.4135 C140.977621,1843.403 140.993356,1843.3975 141.00654,1843.385 C141.016747,1843.375 141.021425,1843.361 141.030356,1843.35 C141.040138,1843.3385 141.053322,1843.3325 141.062678,1843.3195 C141.662759,1842.4685 142.452943,1842 143.287356,1842 C144.12177,1842 144.911954,1842.4685 145.511609,1843.3195 C145.515862,1843.3255 145.521816,1843.327 145.526494,1843.333 C145.556264,1843.3715 145.591989,1843.4005 145.63069,1843.427 C145.643874,1843.436 145.65408,1843.4495 145.668115,1843.4565 C145.720425,1843.4835 145.777839,1843.5 145.83908,1843.5 L145.83908,1843.5 L145.83908,1843.5 C145.891391,1843.5 145.943276,1843.4865 145.992609,1843.4635 C146.011747,1843.4545 146.027483,1843.44 146.045345,1843.428 C146.067034,1843.4135 146.090425,1843.404 146.109989,1843.3845 C146.115092,1843.3795 146.117218,1843.3725 146.121897,1843.367 C146.144862,1843.3425 146.161023,1843.3135 146.17931,1843.2835 C146.19377,1843.2595 146.210356,1843.237 146.220989,1843.211 C146.232046,1843.1845 146.236299,1843.155 146.242678,1843.1255 L146.242678,1843.1255 Z M143.287356,1841 C142.344069,1841 141.453517,1841.4475 140.735632,1842.267 C140.017747,1841.4475 139.127195,1841 138.183908,1841 C137.240621,1841 136.350069,1841.4475 135.632184,1842.267 C134.914299,1841.4475 134.023747,1841 133.08046,1841 C132.137172,1841 131.246621,1841.4475 130.528736,1842.267 C129.810851,1841.4475 128.920299,1841 127.977011,1841 C127.232759,1841 126.523379,1841.283 125.903736,1841.8025 C126.414931,1836.022 130.582747,1831.5 135.632184,1831.5 C140.681621,1831.5 144.849437,1836.022 145.360632,1841.8025 C144.740989,1841.283 144.031609,1841 143.287356,1841 L143.287356,1841 Z" id="Shape"></path>
        </g>
    </g>
</svg>