<?xml version="1.0" encoding="UTF-8"?>
<svg width="61px" height="50px" viewBox="0 0 61 50" version="1.1" xmlns="http://www.w3.org/2000/svg" xmlns:xlink="http://www.w3.org/1999/xlink">
    <!-- Generator: Sketch 41.1 (35376) - http://www.bohemiancoding.com/sketch -->
    <title>Group 25</title>
    <desc>Created with Sketch.</desc>
    <defs></defs>
    <g id="Landing-UC" stroke="none" stroke-width="1" fill="none" fill-rule="evenodd">
        <g id="Landing-UC-catastrófico-LG-Copy-5" transform="translate(-379.000000, -2924.000000)" fill="#FFFFFF">
            <g id="Group-18" transform="translate(136.000000, 2778.000000)">
                <g id="Group-25" transform="translate(243.000000, 146.000000)">
                    <path d="M56.7293027,0.5 L3.47477891,0.5 C1.55928571,0.5 0,2.054 0,3.963 L0,43.037 C0,44.946 1.55928571,46.5 3.47477891,46.5 L4.01360544,46.5 L4.01360544,49.5 L12.0408163,49.5 L12.0408163,46.5 L48.1632653,46.5 L48.1632653,49.5 L56.1904762,49.5 L56.1904762,46.5 L56.7293027,46.5 C58.6447959,46.5 60.2040816,44.946 60.2040816,43.037 L60.2040816,3.963 C60.2040816,2.054 58.6447959,0.5 56.7293027,0.5 L56.7293027,0.5 Z M10.0340136,47.5 L6.02040816,47.5 L6.02040816,46.5 L10.0340136,46.5 L10.0340136,47.5 L10.0340136,47.5 Z M54.1836735,47.5 L50.170068,47.5 L50.170068,46.5 L54.1836735,46.5 L54.1836735,47.5 L54.1836735,47.5 Z M58.1972789,43.037 C58.1972789,43.844 57.5390476,44.5 56.7293027,44.5 L56.1904762,44.5 L48.1632653,44.5 L12.0408163,44.5 L4.01360544,44.5 L3.47477891,44.5 C2.66503401,44.5 2.00680272,43.844 2.00680272,43.037 L2.00680272,3.963 C2.00680272,3.156 2.66503401,2.5 3.47477891,2.5 L56.7293027,2.5 C57.5390476,2.5 58.1972789,3.156 58.1972789,3.963 L58.1972789,43.037 L58.1972789,43.037 Z" id="Shape"></path>
                    <g id="Group-17" transform="translate(3.344671, 4.353741)">
                        <path d="M51.8424036,0.146258503 L1.6723356,0.146258503 C1.11745465,0.146258503 0.66893424,0.593258503 0.66893424,1.1462585 L0.66893424,35.1462585 C0.66893424,35.6992585 1.11745465,36.1462585 1.6723356,36.1462585 L51.8424036,36.1462585 C52.3972846,36.1462585 52.845805,35.6992585 52.845805,35.1462585 L52.845805,1.1462585 C52.845805,0.593258503 52.3972846,0.146258503 51.8424036,0.146258503 L51.8424036,0.146258503 Z M50.8390023,2.1462585 L50.8390023,21.1462585 L37.5479478,21.1462585 L33.7430499,7.8722585 C33.6196315,7.4422585 33.2252948,7.1462585 32.7777778,7.1462585 C32.3292574,7.1462585 31.935924,7.4432585 31.8125057,7.8722585 L28.4370635,19.6822585 L26.6168934,16.6352585 C26.4172166,16.3002585 26.045958,16.1132585 25.6466043,16.1532585 C25.2562812,16.1952585 24.9261621,16.4602585 24.8027438,16.8312585 L22.6765363,23.1862585 L18.6639342,12.7882585 C18.5114172,12.3932585 18.1231009,12.1422585 17.7046825,12.1472585 C17.2812472,12.1572585 16.9089853,12.4302585 16.7755329,12.8312585 L13.9931009,21.1462585 L2.67573696,21.1462585 L2.67573696,2.1462585 L50.8390023,2.1462585 L50.8390023,2.1462585 Z M2.67573696,34.1462585 L2.67573696,23.1462585 L14.7165533,23.1462585 C15.1490193,23.1462585 15.5313152,22.8712585 15.6677778,22.4622585 L17.7939853,16.1072585 L21.8065873,26.5052585 C21.9570975,26.8922585 22.3293594,27.1462585 22.7437642,27.1462585 L22.765839,27.1462585 C23.1892744,27.1362585 23.5615363,26.8632585 23.6949887,26.4622585 L26.0128458,19.5332585 L27.9022506,22.6952585 C28.1069444,23.0382585 28.5012812,23.2262585 28.8936111,23.1742585 C29.290958,23.1232585 29.6200737,22.8412585 29.7294444,22.4572585 L32.7787812,11.7892585 L35.8261111,22.4192585 C35.9495295,22.8502585 36.3438662,23.1462585 36.7913832,23.1462585 L50.8390023,23.1462585 L50.8390023,34.1462585 L2.67573696,34.1462585 L2.67573696,34.1462585 Z" id="Shape"></path>
                    </g>
                </g>
            </g>
        </g>
    </g>
</svg>