<svg width="61" height="50" viewBox="0 0 61 50" xmlns="http://www.w3.org/2000/svg"><title>Group 25</title><g fill="#FFF" fill-rule="evenodd"><path d="M56.73.5H3.474A3.473 3.473 0 0 0 0 3.963v39.074A3.473 3.473 0 0 0 3.475 46.5h.539v3h8.027v-3h36.122v3h8.027v-3h.54a3.473 3.473 0 0 0 3.474-3.463V3.963A3.473 3.473 0 0 0 56.73.5zm-46.696 47H6.02v-1h4.014v1zm44.15 0H50.17v-1h4.014v1zm4.013-4.463c0 .807-.658 1.463-1.468 1.463H3.474c-.809 0-1.467-.656-1.467-1.463V3.963c0-.807.658-1.463 1.468-1.463h53.254c.81 0 1.468.656 1.468 1.463v39.074z"/><path d="M55.187 4.5H5.017a1 1 0 0 0-1.003 1v34a1 1 0 0 0 1.003 1h50.17a1 1 0 0 0 1.003-1v-34a1 1 0 0 0-1.003-1zm-1.003 2v19H40.893l-3.805-13.274a1.004 1.004 0 0 0-1.93 0l-3.376 11.81-1.82-3.047a1 1 0 0 0-.97-.482c-.391.042-.721.307-.845.678l-2.126 6.355-4.012-10.398a1.003 1.003 0 1 0-1.888.043L17.337 25.5H6.02v-19h48.164zM6.02 38.5v-11h12.041c.433 0 .815-.275.951-.684l2.127-6.355 4.012 10.398c.15.387.523.641.937.641h.023c.423-.01.795-.283.929-.684l2.318-6.929 1.889 3.162a1.006 1.006 0 0 0 1.827-.238l3.05-10.668 3.047 10.63c.123.431.518.727.965.727h14.048v11H6.02z"/></g></svg>