<svg width="22" height="30" viewBox="0 0 22 30" xmlns="http://www.w3.org/2000/svg"><title>Shape</title><path d="M21.243 14.126c.007-.035.016-.068.018-.104 0-.008.003-.014.003-.022 0-6.725-4.54-12.224-10.207-12.487V.5c0-.276-.19-.5-.425-.5s-.425.224-.425.5v1.013C4.54 1.776 0 7.275 0 14c0 .008.003.014.004.023.001.035.01.068.018.103.006.03.01.059.021.086.01.026.027.049.042.072.017.03.034.06.057.084.005.005.007.012.012.018.015.014.034.02.05.032.025.018.049.037.078.048.03.013.06.018.09.022.018.002.035.012.053.012.007 0 .012-.004.018-.004.032-.001.063-.012.094-.022.023-.008.046-.011.067-.024.024-.012.044-.033.066-.052.024-.02.047-.038.067-.064.005-.005.011-.008.016-.014.6-.852 1.39-1.32 2.224-1.32.834 0 1.625.468 2.224 1.32.008.011.02.015.03.026.01.012.015.028.026.039.017.016.038.023.056.035.021.016.041.031.064.041a.35.35 0 0 0 .106.027c.016.003.03.012.046.012.007 0 .013-.004.02-.004.021-.001.041-.008.062-.012a.355.355 0 0 0 .085-.03.374.374 0 0 0 .06-.04c.014-.011.03-.016.043-.03.01-.01.015-.023.024-.034.01-.012.023-.018.032-.031.6-.85 1.391-1.319 2.225-1.319.791 0 1.54.425 2.127 1.193V27.5c0 .827-.573 1.5-1.276 1.5-.703 0-1.276-.673-1.276-1.5 0-.276-.19-.5-.425-.5s-.425.224-.425.5c0 1.379.954 2.5 2.126 2.5 1.173 0 2.126-1.121 2.126-2.5V14.193c.587-.768 1.336-1.193 2.127-1.193.834 0 1.625.468 2.224 1.32.008.011.02.015.03.026.01.012.015.028.026.039.017.016.038.022.056.035.021.016.041.031.065.041.034.016.069.023.106.027.015.003.03.012.045.012.006 0 .013-.004.02-.004.02-.001.041-.008.063-.013a.38.38 0 0 0 .084-.029.392.392 0 0 0 .06-.04c.015-.011.03-.016.044-.029.01-.01.014-.024.023-.035.01-.011.023-.018.033-.03.6-.852 1.39-1.32 2.224-1.32.835 0 1.625.468 2.225 1.32.004.005.01.007.014.013.03.038.066.067.105.094.013.009.023.022.037.03.052.027.11.043.171.043a.364.364 0 0 0 .154-.036c.019-.01.034-.024.052-.036.022-.014.045-.024.065-.044.005-.004.007-.012.012-.017.023-.025.039-.054.057-.083.015-.025.031-.047.042-.073.011-.026.015-.056.022-.085zM18.287 12c-.943 0-1.833.447-2.551 1.267-.718-.82-1.609-1.267-2.552-1.267-.943 0-1.834.447-2.552 1.267C9.914 12.447 9.024 12 8.08 12c-.943 0-1.833.447-2.551 1.267C4.81 12.447 3.92 12 2.977 12c-.744 0-1.454.283-2.073.803C1.414 7.022 5.583 2.5 10.632 2.5c5.05 0 9.217 4.522 9.729 10.303-.62-.52-1.33-.803-2.074-.803z" fill="#3564A9" fill-rule="evenodd"/></svg>