<svg width="47" height="50" viewBox="0 0 47 50" xmlns="http://www.w3.org/2000/svg"><title>Group 13</title><path d="M46.088 15.722c0-3.44-2.799-6.24-6.24-6.24-3.44 0-6.24 2.8-6.24 6.24 0 3.176 2.387 5.8 5.46 6.186V38.11c0 5.387-4.384 9.77-9.771 9.77H22.71c-5.388 0-9.77-4.383-9.77-9.77v-9.248h2.79c3.483 0 5.519-3.522 6.046-5.927.082-.488 2.012-12.005 2.298-16.011.109-1.507-.425-2.973-1.5-4.128A6.245 6.245 0 0 0 18.02.812h-1.11A.874.874 0 0 0 16.044 0h-1.576a.881.881 0 0 0-.88.879v1.429c0 .483.396.879.88.879h1.575c.46 0 .83-.361.865-.813h1.111c1.288 0 2.532.542 3.411 1.487.777.834 1.162 1.882 1.086 2.951-.281 3.933-2.262 15.745-2.273 15.825-.396 1.803-1.97 4.662-4.513 4.662H8.587c-2.542 0-4.117-2.86-4.506-4.623-.019-.118-1.998-11.93-2.28-15.863-.077-1.07.31-2.117 1.086-2.951a4.679 4.679 0 0 1 3.41-1.487h1.096c.036.45.405.813.866.813h1.575a.881.881 0 0 0 .879-.88V.879A.88.88 0 0 0 9.834 0H8.26c-.46 0-.83.362-.865.813H6.298c-1.72 0-3.38.723-4.554 1.985C.669 3.952.136 5.418.244 6.925.53 10.93 2.46 22.448 2.549 22.973c.52 2.368 2.556 5.89 6.039 5.89h2.79v9.247c0 6.25 5.084 11.332 11.333 11.332h6.586c6.25 0 11.333-5.083 11.333-11.332V21.907c3.072-.386 5.458-3.01 5.458-6.185zm-6.24 4.677a4.682 4.682 0 0 1-4.677-4.677 4.683 4.683 0 0 1 4.677-4.677 4.683 4.683 0 0 1 4.678 4.677 4.683 4.683 0 0 1-4.678 4.677zm0-7.327a2.653 2.653 0 0 0-2.65 2.65 2.652 2.652 0 0 0 2.65 2.65 2.652 2.652 0 0 0 2.65-2.65c0-1.462-1.189-2.65-2.65-2.65zm0 3.737a1.089 1.089 0 0 1 0-2.175c.6 0 1.088.488 1.088 1.087 0 .6-.488 1.088-1.088 1.088z" fill="#FFF" fill-rule="evenodd"/></svg>